<svg width="48" height="48" xmlns="http://www.w3.org/2000/svg" xmlns:svg="http://www.w3.org/2000/svg">
 <g>
  <title>Layer 1</title>
  <path d="m44.1227,26.74396l0,-5.38573c-2.74602,-0.97816 -4.48079,-1.25312 -5.354,-3.36441l0,-0.00167c-0.87653,-2.11796 0.16632,-3.55605 1.40877,-6.17726l-3.80052,-3.80767c-2.59633,1.23645 -4.04668,2.29127 -6.16566,1.41142l-0.00166,0c-2.11066,-0.87651 -2.38676,-2.62621 -3.3581,-5.36407l-5.37562,0c-0.96801,2.72453 -1.24577,4.48589 -3.3581,5.36407l-0.00166,0c-2.11399,0.87985 -3.54605,-0.1633 -6.16566,-1.41142l-3.80052,3.80767c1.23912,2.61288 2.28697,4.05596 1.40877,6.17726c-0.87653,2.11796 -2.63459,2.39625 -5.354,3.36608l0,5.38573c2.71442,0.9665 4.47746,1.24812 5.354,3.36441c0.88152,2.13629 -0.18961,3.60937 -1.40877,6.17726l3.80052,3.80934c2.59799,-1.23812 4.04835,-2.29127 6.16566,-1.41142l0.00166,0c2.11233,0.87651 2.38842,2.63121 3.3581,5.36407l5.37562,0c0.96801,-2.72619 1.24744,-4.48255 3.3714,-5.36907l0.00166,0c2.09902,-0.87318 3.52609,0.1683 6.15069,1.41809l3.80052,-3.80934c-1.23746,-2.60455 -2.28697,-4.05429 -1.41043,-6.17559c0.87653,-2.11796 2.64124,-2.39958 5.35732,-3.36775l0.00001,0zm-19.95898,3.97264c-3.67412,0 -6.65299,-2.98448 -6.65299,-6.66551s2.97888,-6.66551 6.65299,-6.66551s6.65299,2.98448 6.65299,6.66551s-2.97888,6.66551 -6.65299,6.66551z" id="svg_1" fill="#000000"/>
 </g>
</svg>