<svg width="48" height="48" xmlns="http://www.w3.org/2000/svg" xmlns:svg="http://www.w3.org/2000/svg">
 <!-- Created with SVG-edit - http://svg-edit.googlecode.com/ -->
 <title>exit</title>
 <g>
  <title>Layer 1</title>
 </g>
 <g>
  <title>Layer 2</title>
  <!-- <rect fill="#ffffff" stroke-width="null" stroke-dasharray="null" stroke-linejoin="null" stroke-linecap="null" x="0.019531" y="1.050781" width="49.640624" height="48.425776" id="svg_3"/> -->
  <g id="svg_1" stroke="null">
   <path d="m22.122428,2.46875l0,3.325585l-11.821585,0l0,38.924812l11.821585,0.008678l0,3.36565l21.584401,-3.466825l0.022298,-38.66698l-21.606699,-3.490919l0,-0.000001l0,0l0,-0.000001l0,0.000001zm3.580006,21.285039c0.724899,0 1.312603,0.683857 1.312603,1.527323c0,0.84365 -0.5876,1.527323 -1.312603,1.527323s-1.312603,-0.683672 -1.312603,-1.527323c-0.000103,-0.843466 0.587704,-1.527323 1.312603,-1.527323zm-11.89168,17.829292l0,-32.650094l8.311675,0l0,32.656094l-8.311675,-0.006001l0,0.000001z" id="svg_2" stroke="null"/>
  </g>
 </g>
</svg>